<svg width="273" height="193" viewBox="0 0 273 193" fill="none" xmlns="http://www.w3.org/2000/svg">
<path d="M89.6373 158.798C89.9844 158.142 89.509 157.352 88.7669 157.352L30.977 157.352C30.2349 157.352 29.7595 158.142 30.1066 158.798L47.6197 191.885C47.7903 192.208 48.1252 192.409 48.49 192.409L71.2539 192.409C71.6187 192.409 71.9536 192.208 72.1242 191.885L89.6373 158.798Z" fill="#278418" stroke="#44B731" stroke-width="1.18169"/>
<path d="M72.4617 158.81C72.8212 158.154 72.3463 157.352 71.598 157.352L48.5569 157.352C47.8086 157.352 47.3338 158.154 47.6933 158.81L54.5984 171.415C54.7713 171.73 55.1023 171.927 55.4621 171.927L64.6929 171.927C65.0526 171.927 65.3837 171.73 65.5565 171.415L72.4617 158.81Z" fill="#68F865" stroke="#44B731" stroke-width="1.18169"/>
<path d="M209.723 158.798C209.376 158.142 209.851 157.352 210.593 157.352L268.383 157.352C269.125 157.352 269.601 158.142 269.254 158.798L251.741 191.885C251.57 192.208 251.235 192.409 250.87 192.409L228.106 192.409C227.742 192.409 227.407 192.208 227.236 191.885L209.723 158.798Z" stroke="#44B731" stroke-width="1.18169"/>
<path d="M80.5254 190.964C80.1782 191.62 80.6537 192.409 81.3957 192.409L139.186 192.409C139.928 192.409 140.403 191.62 140.056 190.964L122.543 157.877C122.372 157.554 122.037 157.352 121.673 157.352L98.9088 157.352C98.544 157.352 98.2091 157.554 98.0384 157.877L80.5254 190.964Z" fill="#ABFDAA" stroke="#44B731" stroke-width="1.18169"/>
<path d="M218.835 190.964C219.182 191.62 218.707 192.409 217.965 192.409L160.175 192.409C159.433 192.409 158.957 191.62 159.304 190.964L176.818 157.877C176.988 157.554 177.323 157.352 177.688 157.352L200.452 157.352C200.816 157.352 201.151 157.554 201.322 157.877L218.835 190.964Z" stroke="#44B731" stroke-width="1.18169"/>
<path d="M201.66 190.951C202.019 191.608 201.544 192.409 200.796 192.409L177.755 192.409C177.006 192.409 176.532 191.608 176.891 190.951L183.796 178.347C183.969 178.031 184.3 177.835 184.66 177.835L193.891 177.835C194.25 177.835 194.582 178.031 194.754 178.347L201.66 190.951Z" fill="#278418" stroke="#44B731" stroke-width="1.18169"/>
<path d="M1.7498 190.963C1.40179 191.619 1.87719 192.409 2.61967 192.409H38.3455C39.0879 192.409 39.5633 191.619 39.2153 190.963L29.183 172.056C29.0122 171.734 28.6776 171.533 28.3132 171.533H12.6519C12.2875 171.533 11.9529 171.734 11.7821 172.056L1.7498 190.963Z" stroke="#68F865" stroke-width="1.18169"/>
<path d="M168.413 158.799C168.761 158.143 168.286 157.352 167.543 157.352L131.817 157.352C131.075 157.352 130.6 158.143 130.948 158.799L140.98 177.706C141.151 178.028 141.485 178.229 141.85 178.229L157.511 178.229C157.875 178.229 158.21 178.028 158.381 177.706L168.413 158.799Z" fill="#278418" stroke="#44B731" stroke-width="1.18169"/>
<path d="M5.51446 160.898L8.00285 160.898C8.79952 160.898 9.26644 160.001 8.80958 159.348L6.32119 155.793C5.92916 155.233 5.09976 155.233 4.70773 155.793L2.21935 159.348C1.76248 160.001 2.2294 160.898 3.02607 160.898L5.51446 160.898Z" stroke="#68F865" stroke-width="1.18169"/>
<path d="M13.3924 154.792H10.904C9.6293 154.792 8.88223 156.227 9.61321 157.271L12.1016 160.826C12.7288 161.722 14.0559 161.722 14.6831 160.826L17.1715 157.271C17.9025 156.227 17.1554 154.792 15.8808 154.792H13.3924Z" fill="#68F865"/>
<g style="mix-blend-mode:screen">
<path d="M271.837 117.637C271.837 117.637 213.498 127.252 139.515 127.252C65.5315 127.252 1.65178 107.208 1.65178 107.208" stroke="#0DF457" stroke-width="1.30367" stroke-linecap="round"/>
</g>
<g style="mix-blend-mode:screen">
<path d="M245.764 57.6682C245.764 57.6682 222.298 74.7789 145.218 96.6153C68.1388 118.452 1.65173 117.637 1.65173 117.637M210.076 45.4464L1.65173 99.0597M193.291 42.5131C178.625 70.2704 119.764 119.332 1.65173 93.5191" stroke="#0DF457" stroke-width="1.30367" stroke-linecap="round"/>
</g>
<g style="mix-blend-mode:screen">
<path d="M1.97775 87.4896L72.7017 129.696" stroke="#206D33" stroke-width="1.30367" stroke-linecap="round"/>
</g>
<g style="mix-blend-mode:screen">
<path d="M258.475 59.9497C258.475 59.9497 206.002 75.7566 132.996 84.2305C59.9911 92.7043 1.81488 75.7566 1.81488 75.7566" stroke="#206D33" stroke-width="1.30367" stroke-linecap="round"/>
</g>
<g style="mix-blend-mode:screen">
<path d="M1.65191 72.8233L129.9 20.3507" stroke="#0DF457" stroke-width="1.30367" stroke-linecap="round"/>
</g>
<g style="mix-blend-mode:screen">
<path d="M2.30368 5.35857C63.0872 46.75 148.314 137.681 272 110.304" stroke="#0DF457" stroke-width="1.30367" stroke-linecap="round"/>
</g>
<g style="mix-blend-mode:screen">
<path d="M1.00008 3.07706C59.3392 41.6982 111.323 73.1492 188.728 39.7427" stroke="#206D33" stroke-width="1.30367" stroke-linecap="round"/>
</g>
<g style="mix-blend-mode:screen">
<path d="M14.5257 1.61053C41.7398 39.091 161.677 159.191 271.511 102.971" stroke="#206D33" stroke-width="1.30367" stroke-linecap="round"/>
</g>
<g style="mix-blend-mode:screen">
<path d="M1.81462 4.05485L167.38 33.5503" stroke="#206D33" stroke-width="1.30367" stroke-linecap="round"/>
</g>
<g style="mix-blend-mode:screen">
<path d="M84.7609 7.8029C82.6424 32.9528 93.7236 93.2909 154.996 133.444" stroke="#206D33" stroke-width="1.30367" stroke-linecap="round"/>
</g>
<g style="mix-blend-mode:screen">
<path d="M98.6121 11.0621C98.6121 11.0621 109.693 105.252 271.674 113.074" stroke="#0DF457" stroke-width="1.30367" stroke-linecap="round"/>
</g>
</svg>
