<svg width="258" height="290" viewBox="0 0 258 290" fill="none" xmlns="http://www.w3.org/2000/svg">
<g clip-path="url(#clip0_37_369)">
<path d="M118.901 146.776C119.509 145.724 119.509 144.429 118.901 143.377L59.4658 40.4312C58.8585 39.3793 57.7362 38.7314 56.5217 38.7314L-62.3496 38.7313C-63.5641 38.7313 -64.6864 39.3793 -65.2937 40.4312L-124.729 143.377C-125.337 144.429 -125.337 145.724 -124.729 146.776L-65.2937 249.722C-64.6865 250.774 -63.5641 251.422 -62.3496 251.422L56.5217 251.422C57.7362 251.422 58.8585 250.774 59.4658 249.722L118.901 146.776Z" fill="#FF2606" fill-opacity="0.3" stroke="#FF2606" stroke-width="0.971319"/>
<path d="M89.2739 146.778C89.8824 145.725 89.8824 144.428 89.2739 143.375L42.0433 61.6696C41.4357 60.6186 40.3139 59.9713 39.1 59.9713L-55.3696 59.9713C-56.5835 59.9713 -57.7053 60.6186 -58.3129 61.6696L-105.543 143.375C-106.152 144.428 -106.152 145.725 -105.543 146.778L-58.3129 228.483C-57.7053 229.534 -56.5835 230.182 -55.3696 230.182L39.1 230.182C40.3139 230.182 41.4357 229.534 42.0432 228.483L89.2739 146.778Z" fill="#031010" stroke="#FF2606" stroke-width="0.971319"/>
<path d="M59.6476 146.778C60.2566 145.725 60.2566 144.427 59.6476 143.374L27.8379 88.3765C27.2302 87.3259 26.1086 86.6789 24.895 86.6789L-38.7364 86.6789C-39.9501 86.6789 -41.0716 87.3259 -41.6793 88.3765L-73.489 143.374C-74.098 144.427 -74.098 145.725 -73.489 146.778L-41.6793 201.776C-41.0716 202.827 -39.9501 203.474 -38.7364 203.474L24.895 203.474C26.1086 203.474 27.2302 202.827 27.8378 201.776L59.6476 146.778Z" fill="#031010" stroke="#FF2606" stroke-width="0.971319"/>
<path d="M31.7255 146.776C32.3328 145.724 32.3328 144.428 31.7255 143.377L14.0566 112.773C13.4494 111.721 12.3271 111.073 11.1125 111.073L-24.2253 111.073C-25.4398 111.073 -26.5621 111.721 -27.1694 112.773L-44.8383 143.377C-45.4456 144.428 -45.4456 145.724 -44.8383 146.776L-27.1694 177.38C-26.5621 178.431 -25.4398 179.079 -24.2253 179.079L11.1125 179.079C12.3271 179.079 13.4494 178.431 14.0566 177.38L31.7255 146.776Z" fill="#031010" stroke="#FF2606" stroke-width="0.971319"/>
<path d="M15.784 115.451L32.1023 143.102C32.8213 144.32 32.8213 145.833 32.1023 147.051L15.784 174.702" stroke="#FF2606" stroke-width="2.91396" stroke-linecap="round"/>
</g>
<g clip-path="url(#clip1_37_369)">
<g filter="url(#filter0_d_37_369)">
<path d="M-147.398 145.076C-147.398 225.007 -82.6015 289.803 -2.67122 289.803C77.2591 289.803 142.055 225.007 142.055 145.076C142.055 65.1462 77.2591 0.349915 -2.67122 0.349915C-82.6015 0.349915 -147.398 65.1462 -147.398 145.076Z" stroke="#FF2606" stroke-width="3.88528" stroke-linecap="round" stroke-dasharray="0.12 40.31" shape-rendering="crispEdges"/>
</g>
</g>
<g clip-path="url(#clip2_37_369)">
<path d="M-139.384 145.076C-139.384 144.91 -139.384 144.744 -139.383 144.577L-137.441 144.584C-137.424 139.963 -137.167 135.399 -136.683 130.903L-138.615 130.695C-138.579 130.364 -138.542 130.034 -138.504 129.704L-136.574 129.927C-136.047 125.347 -135.282 120.84 -134.294 116.416L-136.19 115.993C-136.118 115.669 -136.044 115.346 -135.97 115.023L-134.077 115.461C-133.041 110.98 -131.774 106.587 -130.29 102.295L-132.126 101.66C-132.018 101.347 -131.909 101.035 -131.798 100.723L-129.967 101.372C-128.435 97.0443 -126.681 92.8215 -124.72 88.7168L-126.472 87.8793C-126.329 87.5803 -126.186 87.2819 -126.04 86.9842L-124.294 87.8349C-122.287 83.7135 -120.069 79.7133 -117.656 75.8481L-119.303 74.8192C-119.128 74.5381 -118.951 74.2577 -118.774 73.978L-117.134 75.0192C-114.68 71.1546 -112.029 67.4274 -109.196 63.8517L-110.718 62.6452C-110.513 62.3856 -110.306 62.1268 -110.099 61.8689L-108.585 63.0867C-105.719 59.5243 -102.669 56.1151 -99.4518 52.8734L-100.831 51.5049C-100.597 51.2698 -100.363 51.0357 -100.128 50.8023L-98.7595 52.1811C-95.5178 48.9634 -92.1087 45.9143 -88.5462 43.0479L-89.7641 41.5343C-89.5061 41.3268 -89.2473 41.1201 -88.9877 40.9145L-87.7812 42.437C-84.2055 39.6035 -80.4783 36.9529 -76.6137 34.4993L-77.6549 32.8593C-77.3752 32.6817 -77.0948 32.5052 -76.8137 32.3296L-75.7848 33.9774C-71.9196 31.5638 -67.9194 29.3463 -63.798 27.3389L-64.6487 25.5924C-64.351 25.4474 -64.0526 25.3034 -63.7536 25.1606L-62.9161 26.9134C-58.8114 24.9521 -54.5886 23.1984 -50.2611 21.6658L-50.9097 19.8346C-50.5979 19.7242 -50.2855 19.6149 -49.9727 19.5067L-49.338 21.3428C-45.0461 19.8591 -40.6529 18.5924 -36.1716 17.5558L-36.6094 15.6632C-36.2867 15.5885 -35.9636 15.515 -35.64 15.4427L-35.2164 17.3387C-30.7933 16.3506 -26.2857 15.5864 -21.7062 15.0585L-21.9286 13.1287C-21.5989 13.0907 -21.2688 13.0539 -20.9383 13.0183L-20.7303 14.9498C-16.234 14.4656 -11.6695 14.2091 -7.04857 14.1921L-7.05573 12.2495C-6.88936 12.2489 -6.72293 12.2486 -6.55643 12.2486C-6.38991 12.2486 -6.22348 12.2489 -6.0571 12.2495L-6.06425 14.1921C-1.4433 14.2091 3.12122 14.4656 7.61752 14.9498L7.82551 13.0183C8.15596 13.0539 8.48605 13.0907 8.81577 13.1287L8.59333 15.0585C13.1729 15.5864 17.6805 16.3506 22.1036 17.3387L22.5271 15.4427C22.8507 15.515 23.1739 15.5885 23.4966 15.6632L23.0588 17.5558C27.5401 18.5924 31.9332 19.8591 36.2251 21.3428L36.8598 19.5067C37.1727 19.6149 37.485 19.7242 37.7968 19.8346L37.1483 21.6658C41.4757 23.1984 45.6986 24.9521 49.8032 26.9134L50.6408 25.1606C50.9397 25.3034 51.2381 25.4474 51.5359 25.5924L50.6852 27.3389C54.8065 29.3463 58.8068 31.5638 62.672 33.9774L63.7009 32.3296C63.982 32.5052 64.2624 32.6817 64.542 32.8593L63.5008 34.4993C67.3654 36.9529 71.0927 39.6035 74.6684 42.437L75.8749 40.9144C76.1344 41.1201 76.3932 41.3268 76.6512 41.5343L75.4334 43.0479C78.9958 45.9143 82.405 48.9634 85.6466 52.1811L87.0152 50.8023C87.2502 51.0356 87.4844 51.2698 87.7177 51.5049L86.339 52.8734C89.5566 56.1151 92.6058 59.5242 95.4722 63.0867L96.9857 61.8688C97.1933 62.1268 97.3999 62.3856 97.6056 62.6451L96.083 63.8517C98.9165 67.4274 101.567 71.1546 104.021 75.0192L105.661 73.978C105.838 74.2577 106.015 74.5381 106.19 74.8192L104.543 75.8481C106.956 79.7133 109.174 83.7135 111.181 87.8349L112.928 86.9842C113.073 87.2819 113.217 87.5803 113.359 87.8793L111.607 88.7168C113.568 92.8215 115.322 97.0443 116.854 101.372L118.685 100.723C118.796 101.035 118.905 101.347 119.013 101.66L117.177 102.295C118.661 106.587 119.928 110.98 120.964 115.461L122.857 115.023C122.932 115.346 123.005 115.669 123.077 115.993L121.181 116.416C122.169 120.84 122.934 125.347 123.462 129.927L125.391 129.704C125.429 130.034 125.466 130.364 125.502 130.695L123.57 130.903C124.054 135.399 124.311 139.963 124.328 144.584L126.271 144.577C126.271 144.744 126.271 144.91 126.271 145.076C126.271 145.243 126.271 145.409 126.271 145.576L124.328 145.569C124.311 150.19 124.054 154.754 123.57 159.25L125.502 159.458C125.466 159.789 125.429 160.119 125.391 160.449L123.462 160.226C122.934 164.806 122.169 169.313 121.181 173.737L123.077 174.16C123.005 174.484 122.932 174.807 122.857 175.13L120.964 174.692C119.928 179.173 118.661 183.566 117.177 187.858L119.013 188.493C118.905 188.806 118.796 189.118 118.685 189.43L116.854 188.781C115.322 193.109 113.568 197.331 111.607 201.436L113.359 202.274C113.217 202.573 113.073 202.871 112.928 203.169L111.181 202.318C109.174 206.439 106.956 210.44 104.543 214.305L106.19 215.334C106.015 215.615 105.838 215.895 105.661 216.175L104.021 215.134C101.567 218.998 98.9165 222.726 96.083 226.301L97.6056 227.508C97.3999 227.767 97.1933 228.026 96.9857 228.284L95.4722 227.066C92.6058 230.629 89.5566 234.038 86.339 237.28L87.7177 238.648C87.4844 238.883 87.2502 239.117 87.0152 239.351L85.6466 237.972C82.405 241.19 78.9958 244.239 75.4334 247.105L76.6512 248.619C76.3932 248.826 76.1345 249.033 75.8749 249.238L74.6684 247.716C71.0927 250.549 67.3654 253.2 63.5008 255.654L64.542 257.294C64.2624 257.471 63.982 257.648 63.7009 257.823L62.672 256.176C58.8068 258.589 54.8065 260.807 50.6852 262.814L51.5359 264.561C51.2381 264.706 50.9397 264.85 50.6407 264.992L49.8032 263.24C45.6986 265.201 41.4757 266.955 37.1483 268.487L37.7968 270.318C37.485 270.429 37.1727 270.538 36.8598 270.646L36.2251 268.81C31.9332 270.294 27.5401 271.561 23.0588 272.597L23.4966 274.49C23.1739 274.564 22.8507 274.638 22.5271 274.71L22.1036 272.814C17.6805 273.802 13.1729 274.567 8.59332 275.094L8.81576 277.024C8.48603 277.062 8.15594 277.099 7.82549 277.135L7.6175 275.203C3.12119 275.687 -1.44332 275.944 -6.06429 275.961L-6.05713 277.903C-6.2235 277.904 -6.38992 277.904 -6.55643 277.904C-6.72295 277.904 -6.88937 277.904 -7.05576 277.903L-7.0486 275.961C-11.6696 275.944 -16.2341 275.687 -20.7304 275.203L-20.9384 277.135C-21.0735 277.12 -21.2086 277.105 -21.3436 277.09C-21.5387 277.069 -21.7337 277.047 -21.9286 277.024L-21.7062 275.094C-26.2857 274.567 -30.7933 273.802 -35.2165 272.814L-35.64 274.71C-35.9636 274.638 -36.2867 274.564 -36.6095 274.49L-36.1717 272.597C-40.6529 271.561 -45.0461 270.294 -49.338 268.81L-49.9727 270.646C-50.2855 270.538 -50.5979 270.429 -50.9097 270.318L-50.2612 268.487C-54.5886 266.955 -58.8114 265.201 -62.9161 263.24L-63.7536 264.992C-64.0526 264.85 -64.351 264.706 -64.6487 264.561L-63.798 262.814C-67.9194 260.807 -71.9196 258.589 -75.7848 256.176L-76.8138 257.823C-77.0948 257.648 -77.3752 257.471 -77.6549 257.294L-76.6137 255.654C-80.4783 253.2 -84.2055 250.549 -87.7812 247.716L-88.9877 249.238C-89.2473 249.033 -89.5061 248.826 -89.764 248.619L-88.5462 247.105C-92.1086 244.239 -95.5178 241.19 -98.7595 237.972L-100.128 239.351C-100.363 239.117 -100.597 238.883 -100.831 238.648L-99.4518 237.28C-102.669 234.038 -105.719 230.629 -108.585 227.066L-110.099 228.284C-110.306 228.026 -110.513 227.767 -110.718 227.508L-109.196 226.301C-112.029 222.726 -114.68 218.998 -117.134 215.134L-118.774 216.175C-118.951 215.895 -119.128 215.615 -119.303 215.334L-117.655 214.305C-120.069 210.44 -122.287 206.439 -124.294 202.318L-126.04 203.169C-126.186 202.871 -126.329 202.573 -126.472 202.274L-124.72 201.436C-126.681 197.331 -128.435 193.109 -129.967 188.781L-131.798 189.43C-131.909 189.118 -132.018 188.806 -132.126 188.493L-130.29 187.858C-131.774 183.566 -133.041 179.173 -134.077 174.692L-135.97 175.129C-136.001 174.992 -136.033 174.855 -136.064 174.718C-136.107 174.532 -136.149 174.346 -136.19 174.16L-134.294 173.736C-135.282 169.313 -136.047 164.806 -136.574 160.226L-138.504 160.449C-138.542 160.119 -138.579 159.789 -138.615 159.458L-136.683 159.25C-137.167 154.754 -137.424 150.19 -137.441 145.569L-139.383 145.576C-139.384 145.409 -139.384 145.243 -139.384 145.076Z" stroke="#FF2606" stroke-width="3.88528" stroke-dasharray="0.97 13.6"/>
<mask id="path-8-inside-1_37_369" fill="white">
<rect width="3.88528" height="3.88528" rx="0.48566" transform="matrix(-1 0 0 1 83.0478 29.2466)"/>
</mask>
<rect width="3.88528" height="3.88528" rx="0.48566" transform="matrix(-1 0 0 1 83.0478 29.2466)" stroke="white" stroke-width="1.94264" mask="url(#path-8-inside-1_37_369)"/>
<mask id="path-9-inside-2_37_369" fill="white">
<rect width="3.88528" height="3.88528" rx="0.48566" transform="matrix(-1 0 0 1 77.2199 29.2466)"/>
</mask>
<rect width="3.88528" height="3.88528" rx="0.48566" transform="matrix(-1 0 0 1 77.2199 29.2466)" fill="white" stroke="white" stroke-width="1.94264" mask="url(#path-9-inside-2_37_369)"/>
<path d="M85.4248 31.4065L88.5243 32.9562C88.6858 33.0369 88.8757 32.9195 88.8757 32.739V31.1893V29.6396C88.8757 29.459 88.6858 29.3416 88.5243 29.4224L85.4248 30.9721C85.2459 31.0616 85.2459 31.317 85.4248 31.4065Z" fill="white" stroke="white" stroke-width="0.971319"/>
</g>
<g style="mix-blend-mode:hard-light" opacity="0.25" filter="url(#filter1_df_37_369)">
<path d="M217.949 37.0173H159.129L19.6691 123.416" stroke="#FF2606" stroke-width="1.94264" stroke-linecap="round"/>
<path d="M217.949 253.136H159.129L19.6691 166.737" stroke="#FF2606" stroke-width="1.94264" stroke-linecap="round"/>
<path d="M254 141.861H195.18L32.5953 145.137" stroke="#FF2606" stroke-width="1.94264" stroke-linecap="round"/>
<path d="M254 148.292H195.18L32.5953 145.016" stroke="#FF2606" stroke-width="1.94264" stroke-linecap="round"/>
<path d="M254 136.036H195.18L31.8838 144.045" stroke="#FF2606" stroke-width="1.94264" stroke-linecap="round"/>
<path d="M254 154.117H195.18L31.8838 146.108" stroke="#FF2606" stroke-width="1.94264" stroke-linecap="round"/>
<path d="M254 130.212H195.18L31.4094 143.074" stroke="#FF2606" stroke-width="1.94264" stroke-linecap="round"/>
<path d="M254 159.941H195.18L31.4094 147.079" stroke="#FF2606" stroke-width="1.94264" stroke-linecap="round"/>
<path d="M254 124.387H195.18L31.2908 142.832" stroke="#FF2606" stroke-width="1.94264" stroke-linecap="round"/>
<path d="M254 165.766H195.18L31.2908 147.321" stroke="#FF2606" stroke-width="1.94264" stroke-linecap="round"/>
<path d="M254 118.562H195.18L30.8165 142.103" stroke="#FF2606" stroke-width="1.94264" stroke-linecap="round"/>
<path d="M254 171.591H195.18L30.8165 148.049" stroke="#FF2606" stroke-width="1.94264" stroke-linecap="round"/>
<path d="M254 112.738H195.18L30.1049 140.89" stroke="#FF2606" stroke-width="1.94264" stroke-linecap="round"/>
<path d="M254 177.415H195.18L30.1049 149.263" stroke="#FF2606" stroke-width="1.94264" stroke-linecap="round"/>
<path d="M254 106.913H195.18L29.2748 139.555" stroke="#FF2606" stroke-width="1.94264" stroke-linecap="round"/>
<path d="M254 183.24H195.18L29.2748 150.598" stroke="#FF2606" stroke-width="1.94264" stroke-linecap="round"/>
<path d="M254 101.088H195.18L28.4447 138.22" stroke="#FF2606" stroke-width="1.94264" stroke-linecap="round"/>
<path d="M254 189.065H195.18L28.4447 151.933" stroke="#FF2606" stroke-width="1.94264" stroke-linecap="round"/>
<path d="M254 95.2637H195.18L27.7332 136.764" stroke="#FF2606" stroke-width="1.94264" stroke-linecap="round"/>
<path d="M254 194.889H195.18L27.7332 153.389" stroke="#FF2606" stroke-width="1.94264" stroke-linecap="round"/>
<path d="M252.103 89.439H193.283L26.7845 135.551" stroke="#FF2606" stroke-width="1.94264" stroke-linecap="round"/>
<path d="M252.103 200.714H193.283L26.7845 154.602" stroke="#FF2606" stroke-width="1.94264" stroke-linecap="round"/>
<path d="M250.205 83.6144H191.385L26.0728 134.095" stroke="#FF2606" stroke-width="1.94264" stroke-linecap="round"/>
<path d="M250.205 206.539H191.385L26.0728 156.058" stroke="#FF2606" stroke-width="1.94264" stroke-linecap="round"/>
<path d="M246.41 77.7897H187.59L25.3614 132.638" stroke="#FF2606" stroke-width="1.94264" stroke-linecap="round"/>
<path d="M246.41 212.363H187.59L25.3614 157.515" stroke="#FF2606" stroke-width="1.94264" stroke-linecap="round"/>
<path d="M242.615 71.9651H183.796L24.4126 131.425" stroke="#FF2606" stroke-width="1.94264" stroke-linecap="round"/>
<path d="M242.615 218.188H183.796L24.4126 158.728" stroke="#FF2606" stroke-width="1.94264" stroke-linecap="round"/>
<path d="M238.821 66.1405H180.001L23.7013 129.969" stroke="#FF2606" stroke-width="1.94264" stroke-linecap="round"/>
<path d="M238.821 224.013H180.001L23.7013 160.184" stroke="#FF2606" stroke-width="1.94264" stroke-linecap="round"/>
<path d="M235.026 60.3158H176.206L22.871 128.634" stroke="#FF2606" stroke-width="1.94264" stroke-linecap="round"/>
<path d="M235.026 229.837H176.206L22.871 161.519" stroke="#FF2606" stroke-width="1.94264" stroke-linecap="round"/>
<path d="M229.333 54.4912H170.514L22.0409 127.299" stroke="#FF2606" stroke-width="1.94264" stroke-linecap="round"/>
<path d="M229.333 235.662H170.514L22.0409 162.854" stroke="#FF2606" stroke-width="1.94264" stroke-linecap="round"/>
<path d="M225.539 48.6665H166.719L21.3295 126.086" stroke="#FF2606" stroke-width="1.94264" stroke-linecap="round"/>
<path d="M225.539 241.486H166.719L21.3295 164.067" stroke="#FF2606" stroke-width="1.94264" stroke-linecap="round"/>
<path d="M221.744 42.8419H162.924L20.3807 124.872" stroke="#FF2606" stroke-width="1.94264" stroke-linecap="round"/>
<path d="M221.744 247.311H162.924L20.3807 165.281" stroke="#FF2606" stroke-width="1.94264" stroke-linecap="round"/>
</g>
<g filter="url(#filter2_d_37_369)">
<path d="M217.949 253.136H159.129" stroke="#FF2606" stroke-width="1.94264" stroke-linecap="round"/>
<path d="M217.949 37.0173H159.129" stroke="#FF2606" stroke-width="1.94264" stroke-linecap="round"/>
<path d="M254 154.117H195.18" stroke="#FF2606" stroke-width="1.94264" stroke-linecap="round"/>
<path d="M254 148.171H195.18" stroke="#FF2606" stroke-width="1.94264" stroke-linecap="round"/>
<path d="M254 159.941H195.18" stroke="#FF2606" stroke-width="1.94264" stroke-linecap="round"/>
<path d="M254 130.212H195.18" stroke="#FF2606" stroke-width="1.94264" stroke-linecap="round"/>
<path d="M254 136.036H195.18" stroke="#FF2606" stroke-width="1.94264" stroke-linecap="round"/>
<path d="M254 141.861H195.18" stroke="#FF2606" stroke-width="1.94264" stroke-linecap="round"/>
<path d="M254 165.766H195.18" stroke="#FF2606" stroke-width="1.94264" stroke-linecap="round"/>
<path d="M254 124.387H195.18" stroke="#FF2606" stroke-width="1.94264" stroke-linecap="round"/>
<path d="M254 171.591H195.18" stroke="#FF2606" stroke-width="1.94264" stroke-linecap="round"/>
<path d="M254 118.562H195.18" stroke="#FF2606" stroke-width="1.94264" stroke-linecap="round"/>
<path d="M254 177.415H195.18" stroke="#FF2606" stroke-width="1.94264" stroke-linecap="round"/>
<path d="M254 112.738H195.18" stroke="#FF2606" stroke-width="1.94264" stroke-linecap="round"/>
<path d="M254 183.24H195.18" stroke="#FF2606" stroke-width="1.94264" stroke-linecap="round"/>
<path d="M254 106.913H195.18" stroke="#FF2606" stroke-width="1.94264" stroke-linecap="round"/>
<path d="M254 189.065H195.18" stroke="#FF2606" stroke-width="1.94264" stroke-linecap="round"/>
<path d="M254 101.088H195.18" stroke="#FF2606" stroke-width="1.94264" stroke-linecap="round"/>
<path d="M254 194.889H195.18" stroke="#FF2606" stroke-width="1.94264" stroke-linecap="round"/>
<path d="M254 95.2637H195.18" stroke="#FF2606" stroke-width="1.94264" stroke-linecap="round"/>
<path d="M252.103 200.714H193.283" stroke="#FF2606" stroke-width="1.94264" stroke-linecap="round"/>
<path d="M252.103 89.439H193.283" stroke="#FF2606" stroke-width="1.94264" stroke-linecap="round"/>
<path d="M250.205 206.539H191.385" stroke="#FF2606" stroke-width="1.94264" stroke-linecap="round"/>
<path d="M250.205 83.6144H191.385" stroke="#FF2606" stroke-width="1.94264" stroke-linecap="round"/>
<path d="M246.41 212.363H187.59" stroke="#FF2606" stroke-width="1.94264" stroke-linecap="round"/>
<path d="M246.41 77.7897H187.59" stroke="#FF2606" stroke-width="1.94264" stroke-linecap="round"/>
<path d="M242.615 218.188H183.796" stroke="#FF2606" stroke-width="1.94264" stroke-linecap="round"/>
<path d="M242.615 71.9651H183.796" stroke="#FF2606" stroke-width="1.94264" stroke-linecap="round"/>
<path d="M238.821 224.013H180.001" stroke="#FF2606" stroke-width="1.94264" stroke-linecap="round"/>
<path d="M238.821 66.1405H180.001" stroke="#FF2606" stroke-width="1.94264" stroke-linecap="round"/>
<path d="M235.026 229.837H176.206" stroke="#FF2606" stroke-width="1.94264" stroke-linecap="round"/>
<path d="M235.026 60.3158H176.206" stroke="#FF2606" stroke-width="1.94264" stroke-linecap="round"/>
<path d="M229.333 235.662H170.514" stroke="#FF2606" stroke-width="1.94264" stroke-linecap="round"/>
<path d="M229.333 54.4912H170.514" stroke="#FF2606" stroke-width="1.94264" stroke-linecap="round"/>
<path d="M225.539 241.486H166.719" stroke="#FF2606" stroke-width="1.94264" stroke-linecap="round"/>
<path d="M225.539 48.6665H166.719" stroke="#FF2606" stroke-width="1.94264" stroke-linecap="round"/>
<path d="M221.744 247.311H162.924" stroke="#FF2606" stroke-width="1.94264" stroke-linecap="round"/>
<path d="M221.744 42.8419H162.924" stroke="#FF2606" stroke-width="1.94264" stroke-linecap="round"/>
</g>
<g filter="url(#filter3_d_37_369)">
<rect width="15.5411" height="7.77055" rx="1.94264" transform="matrix(-1 0 0 1 137.927 141.191)" fill="#FE7D56"/>
<rect width="7.77055" height="7.77055" rx="1.94264" transform="matrix(-1 0 0 1 147.641 141.191)" fill="#FE7D56"/>
<rect width="38.8528" height="7.77055" rx="1.94264" transform="matrix(-1 0 0 1 95.1893 141.191)" fill="#FE7D56"/>
<rect width="38.8528" height="7.77055" rx="1.94264" transform="matrix(-1 0 0 1 240.887 141.191)" fill="#FE7D56"/>
<rect width="19.4264" height="7.77055" rx="1.94264" transform="matrix(-1 0 0 1 116.558 141.191)" fill="#FE7D56"/>
<rect width="15.5411" height="7.77055" rx="1.94264" transform="matrix(-1 0 0 1 200.092 141.191)" fill="#FE7D56"/>
<rect width="7.77055" height="7.77055" rx="1.94264" transform="matrix(-1 0 0 1 157.354 141.191)" fill="#FE7D56"/>
<rect width="9.71319" height="7.77055" rx="1.94264" transform="matrix(-1 0 0 1 169.01 141.191)" fill="#FE7D56"/>
<rect width="7.77055" height="7.77055" rx="1.94264" transform="matrix(-1 0 0 1 178.723 141.191)" fill="#FE7D56"/>
</g>
<g filter="url(#filter4_f_37_369)">
<rect width="15.5411" height="7.77055" rx="1.94264" transform="matrix(-1 0 0 1 137.927 141.191)" fill="#FE7D56"/>
<rect width="7.77055" height="7.77055" rx="1.94264" transform="matrix(-1 0 0 1 147.641 141.191)" fill="#FE7D56"/>
<rect width="38.8528" height="7.77055" rx="1.94264" transform="matrix(-1 0 0 1 95.1893 141.191)" fill="#FE7D56"/>
<rect width="38.8528" height="7.77055" rx="1.94264" transform="matrix(-1 0 0 1 240.887 141.191)" fill="#FE7D56"/>
<rect width="19.4264" height="7.77055" rx="1.94264" transform="matrix(-1 0 0 1 116.558 141.191)" fill="#FE7D56"/>
<rect width="15.5411" height="7.77055" rx="1.94264" transform="matrix(-1 0 0 1 200.092 141.191)" fill="#FE7D56"/>
<rect width="7.77055" height="7.77055" rx="1.94264" transform="matrix(-1 0 0 1 157.354 141.191)" fill="#FE7D56"/>
<rect width="9.71319" height="7.77055" rx="1.94264" transform="matrix(-1 0 0 1 169.01 141.191)" fill="#FE7D56"/>
<rect width="7.77055" height="7.77055" rx="1.94264" transform="matrix(-1 0 0 1 178.723 141.191)" fill="#FE7D56"/>
</g>
<mask id="path-105-inside-3_37_369" fill="white">
<rect width="3.88528" height="3.88528" rx="0.48566" transform="matrix(-1 0 0 1 200.577 29.2466)"/>
</mask>
<rect width="3.88528" height="3.88528" rx="0.48566" transform="matrix(-1 0 0 1 200.577 29.2466)" stroke="#FF2606" stroke-width="1.94264" mask="url(#path-105-inside-3_37_369)"/>
<rect x="-0.48566" y="0.48566" width="2.91396" height="2.91396" rx="1.45698" transform="matrix(-1 0 0 1 227.774 29.2466)" stroke="#FF2606" stroke-width="0.971319"/>
<path d="M202.954 31.4065L206.054 32.9562C206.215 33.0369 206.405 32.9195 206.405 32.739V31.1893V29.6396C206.405 29.459 206.215 29.3416 206.054 29.4224L202.954 30.9721C202.775 31.0616 202.775 31.317 202.954 31.4065Z" stroke="#FF2606" stroke-width="0.971319"/>
<mask id="path-108-inside-4_37_369" fill="white">
<rect width="3.88528" height="3.88528" rx="0.48566" transform="matrix(-1 0 0 1 222.918 257.021)"/>
</mask>
<rect width="3.88528" height="3.88528" rx="0.48566" transform="matrix(-1 0 0 1 222.918 257.021)" stroke="white" stroke-width="1.94264" mask="url(#path-108-inside-4_37_369)"/>
<mask id="path-109-inside-5_37_369" fill="white">
<rect width="3.88528" height="3.88528" rx="0.48566" transform="matrix(-1 0 0 1 217.09 257.021)"/>
</mask>
<rect width="3.88528" height="3.88528" rx="0.48566" transform="matrix(-1 0 0 1 217.09 257.021)" fill="white" stroke="white" stroke-width="1.94264" mask="url(#path-109-inside-5_37_369)"/>
<path d="M225.295 259.181L228.394 260.731C228.556 260.811 228.746 260.694 228.746 260.513V258.964V257.414C228.746 257.233 228.556 257.116 228.394 257.197L225.295 258.746C225.116 258.836 225.116 259.091 225.295 259.181Z" fill="white" stroke="white" stroke-width="0.971319"/>
<defs>
<filter id="filter0_d_37_369" x="-152.254" y="-4.50667" width="299.166" height="299.166" filterUnits="userSpaceOnUse" color-interpolation-filters="sRGB">
<feFlood flood-opacity="0" result="BackgroundImageFix"/>
<feColorMatrix in="SourceAlpha" type="matrix" values="0 0 0 0 0 0 0 0 0 0 0 0 0 0 0 0 0 0 127 0" result="hardAlpha"/>
<feOffset/>
<feGaussianBlur stdDeviation="1.45698"/>
<feComposite in2="hardAlpha" operator="out"/>
<feColorMatrix type="matrix" values="0 0 0 0 1 0 0 0 0 0.14902 0 0 0 0 0.0235294 0 0 0 1 0"/>
<feBlend mode="normal" in2="BackgroundImageFix" result="effect1_dropShadow_37_369"/>
<feBlend mode="normal" in="SourceGraphic" in2="effect1_dropShadow_37_369" result="shape"/>
</filter>
<filter id="filter1_df_37_369" x="15.7837" y="32.8892" width="242.102" height="223.889" filterUnits="userSpaceOnUse" color-interpolation-filters="sRGB">
<feFlood flood-opacity="0" result="BackgroundImageFix"/>
<feColorMatrix in="SourceAlpha" type="matrix" values="0 0 0 0 0 0 0 0 0 0 0 0 0 0 0 0 0 0 127 0" result="hardAlpha"/>
<feOffset dy="-0.24283"/>
<feGaussianBlur stdDeviation="1.45698"/>
<feComposite in2="hardAlpha" operator="out"/>
<feColorMatrix type="matrix" values="0 0 0 0 1 0 0 0 0 0.494118 0 0 0 0 0.337255 0 0 0 1 0"/>
<feBlend mode="normal" in2="BackgroundImageFix" result="effect1_dropShadow_37_369"/>
<feBlend mode="normal" in="SourceGraphic" in2="effect1_dropShadow_37_369" result="shape"/>
<feGaussianBlur stdDeviation="0.48566" result="effect2_foregroundBlur_37_369"/>
</filter>
<filter id="filter2_d_37_369" x="155.729" y="33.6177" width="101.67" height="222.918" filterUnits="userSpaceOnUse" color-interpolation-filters="sRGB">
<feFlood flood-opacity="0" result="BackgroundImageFix"/>
<feColorMatrix in="SourceAlpha" type="matrix" values="0 0 0 0 0 0 0 0 0 0 0 0 0 0 0 0 0 0 127 0" result="hardAlpha"/>
<feOffset/>
<feGaussianBlur stdDeviation="1.21415"/>
<feComposite in2="hardAlpha" operator="out"/>
<feColorMatrix type="matrix" values="0 0 0 0 1 0 0 0 0 0.14902 0 0 0 0 0.0235294 0 0 0 0.5 0"/>
<feBlend mode="normal" in2="BackgroundImageFix" result="effect1_dropShadow_37_369"/>
<feBlend mode="normal" in="SourceGraphic" in2="effect1_dropShadow_37_369" result="shape"/>
</filter>
<filter id="filter3_d_37_369" x="55.3652" y="141.191" width="186.493" height="9.71321" filterUnits="userSpaceOnUse" color-interpolation-filters="sRGB">
<feFlood flood-opacity="0" result="BackgroundImageFix"/>
<feColorMatrix in="SourceAlpha" type="matrix" values="0 0 0 0 0 0 0 0 0 0 0 0 0 0 0 0 0 0 127 0" result="hardAlpha"/>
<feOffset dy="0.971319"/>
<feGaussianBlur stdDeviation="0.48566"/>
<feComposite in2="hardAlpha" operator="out"/>
<feColorMatrix type="matrix" values="0 0 0 0 0 0 0 0 0 0 0 0 0 0 0 0 0 0 0.25 0"/>
<feBlend mode="normal" in2="BackgroundImageFix" result="effect1_dropShadow_37_369"/>
<feBlend mode="normal" in="SourceGraphic" in2="effect1_dropShadow_37_369" result="shape"/>
</filter>
<filter id="filter4_f_37_369" x="50.5086" y="135.363" width="196.206" height="19.4264" filterUnits="userSpaceOnUse" color-interpolation-filters="sRGB">
<feFlood flood-opacity="0" result="BackgroundImageFix"/>
<feBlend mode="normal" in="SourceGraphic" in2="BackgroundImageFix" result="shape"/>
<feGaussianBlur stdDeviation="2.91396" result="effect1_foregroundBlur_37_369"/>
</filter>
<clipPath id="clip0_37_369">
<rect width="120.444" height="246.715" fill="white" transform="matrix(-1 0 0 1 120.444 21.719)"/>
</clipPath>
<clipPath id="clip1_37_369">
<rect width="99.3174" height="289.453" fill="white" transform="matrix(-1 0 0 1 144.241 0.349915)"/>
</clipPath>
<clipPath id="clip2_37_369">
<rect width="97.1319" height="261.771" fill="white" transform="matrix(-1 0 0 1 132.099 14.1912)"/>
</clipPath>
</defs>
</svg>
